<?xml version="1.0" encoding="utf-8" standalone="no"?>
<!DOCTYPE svg PUBLIC "-//W3C//DTD SVG 1.1//EN"
  "http://www.w3.org/Graphics/SVG/1.1/DTD/svg11.dtd">
<svg xmlns:xlink="http://www.w3.org/1999/xlink" width="720pt" height="432pt" viewBox="0 0 720 432" xmlns="http://www.w3.org/2000/svg" version="1.1">
 <metadata>
  <rdf:RDF xmlns:dc="http://purl.org/dc/elements/1.1/" xmlns:cc="http://creativecommons.org/ns#" xmlns:rdf="http://www.w3.org/1999/02/22-rdf-syntax-ns#">
   <cc:Work>
    <dc:type rdf:resource="http://purl.org/dc/dcmitype/StillImage"/>
    <dc:date>2025-07-21T09:49:19.777498</dc:date>
    <dc:format>image/svg+xml</dc:format>
    <dc:creator>
     <cc:Agent>
      <dc:title>Matplotlib v3.8.0, https://matplotlib.org/</dc:title>
     </cc:Agent>
    </dc:creator>
   </cc:Work>
  </rdf:RDF>
 </metadata>
 <defs>
  <style type="text/css">*{stroke-linejoin: round; stroke-linecap: butt}</style>
 </defs>
 <g id="figure_1">
  <g id="patch_1">
   <path d="M 0 432 
L 720 432 
L 720 0 
L 0 0 
z
" style="fill: #ffffff"/>
  </g>
  <g id="axes_1">
   <g id="patch_2">
    <path d="M 44.57 390.04 
L 709.2 390.04 
L 709.2 26.88 
L 44.57 26.88 
z
" style="fill: #ffffff"/>
   </g>
   <g id="matplotlib.axis_1">
    <g id="xtick_1">
     <g id="line2d_1">
      <path d="M 103.552316 390.04 
L 103.552316 26.88 
" clip-path="url(#pbd02260c22)" style="fill: none; stroke-dasharray: 2.96,1.28; stroke-dashoffset: 0; stroke: #b0b0b0; stroke-opacity: 0.5; stroke-width: 0.8"/>
     </g>
     <g id="line2d_2">
      <defs>
       <path id="m473d6a1c12" d="M 0 0 
L 0 3.5 
" style="stroke: #000000; stroke-width: 0.8"/>
      </defs>
      <g>
       <use xlink:href="#m473d6a1c12" x="103.552316" y="390.04" style="stroke: #000000; stroke-width: 0.8"/>
      </g>
     </g>
     <g id="text_1">
      <!-- 5 -->
      <g transform="translate(100.371066 404.638438) scale(0.1 -0.1)">
       <defs>
        <path id="DejaVuSans-35" d="M 691 4666 
L 3169 4666 
L 3169 4134 
L 1269 4134 
L 1269 2991 
Q 1406 3038 1543 3061 
Q 1681 3084 1819 3084 
Q 2600 3084 3056 2656 
Q 3513 2228 3513 1497 
Q 3513 744 3044 326 
Q 2575 -91 1722 -91 
Q 1428 -91 1123 -41 
Q 819 9 494 109 
L 494 744 
Q 775 591 1075 516 
Q 1375 441 1709 441 
Q 2250 441 2565 725 
Q 2881 1009 2881 1497 
Q 2881 1984 2565 2268 
Q 2250 2553 1709 2553 
Q 1456 2553 1204 2497 
Q 953 2441 691 2322 
L 691 4666 
z
" transform="scale(0.015625)"/>
       </defs>
       <use xlink:href="#DejaVuSans-35"/>
      </g>
     </g>
    </g>
    <g id="xtick_2">
     <g id="line2d_3">
      <path d="M 247.411623 390.04 
L 247.411623 26.88 
" clip-path="url(#pbd02260c22)" style="fill: none; stroke-dasharray: 2.96,1.28; stroke-dashoffset: 0; stroke: #b0b0b0; stroke-opacity: 0.5; stroke-width: 0.8"/>
     </g>
     <g id="line2d_4">
      <g>
       <use xlink:href="#m473d6a1c12" x="247.411623" y="390.04" style="stroke: #000000; stroke-width: 0.8"/>
      </g>
     </g>
     <g id="text_2">
      <!-- 10 -->
      <g transform="translate(241.049123 404.638438) scale(0.1 -0.1)">
       <defs>
        <path id="DejaVuSans-31" d="M 794 531 
L 1825 531 
L 1825 4091 
L 703 3866 
L 703 4441 
L 1819 4666 
L 2450 4666 
L 2450 531 
L 3481 531 
L 3481 0 
L 794 0 
L 794 531 
z
" transform="scale(0.015625)"/>
        <path id="DejaVuSans-30" d="M 2034 4250 
Q 1547 4250 1301 3770 
Q 1056 3291 1056 2328 
Q 1056 1369 1301 889 
Q 1547 409 2034 409 
Q 2525 409 2770 889 
Q 3016 1369 3016 2328 
Q 3016 3291 2770 3770 
Q 2525 4250 2034 4250 
z
M 2034 4750 
Q 2819 4750 3233 4129 
Q 3647 3509 3647 2328 
Q 3647 1150 3233 529 
Q 2819 -91 2034 -91 
Q 1250 -91 836 529 
Q 422 1150 422 2328 
Q 422 3509 836 4129 
Q 1250 4750 2034 4750 
z
" transform="scale(0.015625)"/>
       </defs>
       <use xlink:href="#DejaVuSans-31"/>
       <use xlink:href="#DejaVuSans-30" x="63.623047"/>
      </g>
     </g>
    </g>
    <g id="xtick_3">
     <g id="line2d_5">
      <path d="M 391.270931 390.04 
L 391.270931 26.88 
" clip-path="url(#pbd02260c22)" style="fill: none; stroke-dasharray: 2.96,1.28; stroke-dashoffset: 0; stroke: #b0b0b0; stroke-opacity: 0.5; stroke-width: 0.8"/>
     </g>
     <g id="line2d_6">
      <g>
       <use xlink:href="#m473d6a1c12" x="391.270931" y="390.04" style="stroke: #000000; stroke-width: 0.8"/>
      </g>
     </g>
     <g id="text_3">
      <!-- 15 -->
      <g transform="translate(384.908431 404.638438) scale(0.1 -0.1)">
       <use xlink:href="#DejaVuSans-31"/>
       <use xlink:href="#DejaVuSans-35" x="63.623047"/>
      </g>
     </g>
    </g>
    <g id="xtick_4">
     <g id="line2d_7">
      <path d="M 535.130238 390.04 
L 535.130238 26.88 
" clip-path="url(#pbd02260c22)" style="fill: none; stroke-dasharray: 2.96,1.28; stroke-dashoffset: 0; stroke: #b0b0b0; stroke-opacity: 0.5; stroke-width: 0.8"/>
     </g>
     <g id="line2d_8">
      <g>
       <use xlink:href="#m473d6a1c12" x="535.130238" y="390.04" style="stroke: #000000; stroke-width: 0.8"/>
      </g>
     </g>
     <g id="text_4">
      <!-- 20 -->
      <g transform="translate(528.767738 404.638438) scale(0.1 -0.1)">
       <defs>
        <path id="DejaVuSans-32" d="M 1228 531 
L 3431 531 
L 3431 0 
L 469 0 
L 469 531 
Q 828 903 1448 1529 
Q 2069 2156 2228 2338 
Q 2531 2678 2651 2914 
Q 2772 3150 2772 3378 
Q 2772 3750 2511 3984 
Q 2250 4219 1831 4219 
Q 1534 4219 1204 4116 
Q 875 4013 500 3803 
L 500 4441 
Q 881 4594 1212 4672 
Q 1544 4750 1819 4750 
Q 2544 4750 2975 4387 
Q 3406 4025 3406 3419 
Q 3406 3131 3298 2873 
Q 3191 2616 2906 2266 
Q 2828 2175 2409 1742 
Q 1991 1309 1228 531 
z
" transform="scale(0.015625)"/>
       </defs>
       <use xlink:href="#DejaVuSans-32"/>
       <use xlink:href="#DejaVuSans-30" x="63.623047"/>
      </g>
     </g>
    </g>
    <g id="xtick_5">
     <g id="line2d_9">
      <path d="M 678.989545 390.04 
L 678.989545 26.88 
" clip-path="url(#pbd02260c22)" style="fill: none; stroke-dasharray: 2.96,1.28; stroke-dashoffset: 0; stroke: #b0b0b0; stroke-opacity: 0.5; stroke-width: 0.8"/>
     </g>
     <g id="line2d_10">
      <g>
       <use xlink:href="#m473d6a1c12" x="678.989545" y="390.04" style="stroke: #000000; stroke-width: 0.8"/>
      </g>
     </g>
     <g id="text_5">
      <!-- 25 -->
      <g transform="translate(672.627045 404.638438) scale(0.1 -0.1)">
       <use xlink:href="#DejaVuSans-32"/>
       <use xlink:href="#DejaVuSans-35" x="63.623047"/>
      </g>
     </g>
    </g>
    <g id="text_6">
     <!-- Subreddit Weight -->
     <g transform="translate(333.642812 418.316562) scale(0.1 -0.1)">
      <defs>
       <path id="DejaVuSans-53" d="M 3425 4513 
L 3425 3897 
Q 3066 4069 2747 4153 
Q 2428 4238 2131 4238 
Q 1616 4238 1336 4038 
Q 1056 3838 1056 3469 
Q 1056 3159 1242 3001 
Q 1428 2844 1947 2747 
L 2328 2669 
Q 3034 2534 3370 2195 
Q 3706 1856 3706 1288 
Q 3706 609 3251 259 
Q 2797 -91 1919 -91 
Q 1588 -91 1214 -16 
Q 841 59 441 206 
L 441 856 
Q 825 641 1194 531 
Q 1563 422 1919 422 
Q 2459 422 2753 634 
Q 3047 847 3047 1241 
Q 3047 1584 2836 1778 
Q 2625 1972 2144 2069 
L 1759 2144 
Q 1053 2284 737 2584 
Q 422 2884 422 3419 
Q 422 4038 858 4394 
Q 1294 4750 2059 4750 
Q 2388 4750 2728 4690 
Q 3069 4631 3425 4513 
z
" transform="scale(0.015625)"/>
       <path id="DejaVuSans-75" d="M 544 1381 
L 544 3500 
L 1119 3500 
L 1119 1403 
Q 1119 906 1312 657 
Q 1506 409 1894 409 
Q 2359 409 2629 706 
Q 2900 1003 2900 1516 
L 2900 3500 
L 3475 3500 
L 3475 0 
L 2900 0 
L 2900 538 
Q 2691 219 2414 64 
Q 2138 -91 1772 -91 
Q 1169 -91 856 284 
Q 544 659 544 1381 
z
M 1991 3584 
L 1991 3584 
z
" transform="scale(0.015625)"/>
       <path id="DejaVuSans-62" d="M 3116 1747 
Q 3116 2381 2855 2742 
Q 2594 3103 2138 3103 
Q 1681 3103 1420 2742 
Q 1159 2381 1159 1747 
Q 1159 1113 1420 752 
Q 1681 391 2138 391 
Q 2594 391 2855 752 
Q 3116 1113 3116 1747 
z
M 1159 2969 
Q 1341 3281 1617 3432 
Q 1894 3584 2278 3584 
Q 2916 3584 3314 3078 
Q 3713 2572 3713 1747 
Q 3713 922 3314 415 
Q 2916 -91 2278 -91 
Q 1894 -91 1617 61 
Q 1341 213 1159 525 
L 1159 0 
L 581 0 
L 581 4863 
L 1159 4863 
L 1159 2969 
z
" transform="scale(0.015625)"/>
       <path id="DejaVuSans-72" d="M 2631 2963 
Q 2534 3019 2420 3045 
Q 2306 3072 2169 3072 
Q 1681 3072 1420 2755 
Q 1159 2438 1159 1844 
L 1159 0 
L 581 0 
L 581 3500 
L 1159 3500 
L 1159 2956 
Q 1341 3275 1631 3429 
Q 1922 3584 2338 3584 
Q 2397 3584 2469 3576 
Q 2541 3569 2628 3553 
L 2631 2963 
z
" transform="scale(0.015625)"/>
       <path id="DejaVuSans-65" d="M 3597 1894 
L 3597 1613 
L 953 1613 
Q 991 1019 1311 708 
Q 1631 397 2203 397 
Q 2534 397 2845 478 
Q 3156 559 3463 722 
L 3463 178 
Q 3153 47 2828 -22 
Q 2503 -91 2169 -91 
Q 1331 -91 842 396 
Q 353 884 353 1716 
Q 353 2575 817 3079 
Q 1281 3584 2069 3584 
Q 2775 3584 3186 3129 
Q 3597 2675 3597 1894 
z
M 3022 2063 
Q 3016 2534 2758 2815 
Q 2500 3097 2075 3097 
Q 1594 3097 1305 2825 
Q 1016 2553 972 2059 
L 3022 2063 
z
" transform="scale(0.015625)"/>
       <path id="DejaVuSans-64" d="M 2906 2969 
L 2906 4863 
L 3481 4863 
L 3481 0 
L 2906 0 
L 2906 525 
Q 2725 213 2448 61 
Q 2172 -91 1784 -91 
Q 1150 -91 751 415 
Q 353 922 353 1747 
Q 353 2572 751 3078 
Q 1150 3584 1784 3584 
Q 2172 3584 2448 3432 
Q 2725 3281 2906 2969 
z
M 947 1747 
Q 947 1113 1208 752 
Q 1469 391 1925 391 
Q 2381 391 2643 752 
Q 2906 1113 2906 1747 
Q 2906 2381 2643 2742 
Q 2381 3103 1925 3103 
Q 1469 3103 1208 2742 
Q 947 2381 947 1747 
z
" transform="scale(0.015625)"/>
       <path id="DejaVuSans-69" d="M 603 3500 
L 1178 3500 
L 1178 0 
L 603 0 
L 603 3500 
z
M 603 4863 
L 1178 4863 
L 1178 4134 
L 603 4134 
L 603 4863 
z
" transform="scale(0.015625)"/>
       <path id="DejaVuSans-74" d="M 1172 4494 
L 1172 3500 
L 2356 3500 
L 2356 3053 
L 1172 3053 
L 1172 1153 
Q 1172 725 1289 603 
Q 1406 481 1766 481 
L 2356 481 
L 2356 0 
L 1766 0 
Q 1100 0 847 248 
Q 594 497 594 1153 
L 594 3053 
L 172 3053 
L 172 3500 
L 594 3500 
L 594 4494 
L 1172 4494 
z
" transform="scale(0.015625)"/>
       <path id="DejaVuSans-20" transform="scale(0.015625)"/>
       <path id="DejaVuSans-57" d="M 213 4666 
L 850 4666 
L 1831 722 
L 2809 4666 
L 3519 4666 
L 4500 722 
L 5478 4666 
L 6119 4666 
L 4947 0 
L 4153 0 
L 3169 4050 
L 2175 0 
L 1381 0 
L 213 4666 
z
" transform="scale(0.015625)"/>
       <path id="DejaVuSans-67" d="M 2906 1791 
Q 2906 2416 2648 2759 
Q 2391 3103 1925 3103 
Q 1463 3103 1205 2759 
Q 947 2416 947 1791 
Q 947 1169 1205 825 
Q 1463 481 1925 481 
Q 2391 481 2648 825 
Q 2906 1169 2906 1791 
z
M 3481 434 
Q 3481 -459 3084 -895 
Q 2688 -1331 1869 -1331 
Q 1566 -1331 1297 -1286 
Q 1028 -1241 775 -1147 
L 775 -588 
Q 1028 -725 1275 -790 
Q 1522 -856 1778 -856 
Q 2344 -856 2625 -561 
Q 2906 -266 2906 331 
L 2906 616 
Q 2728 306 2450 153 
Q 2172 0 1784 0 
Q 1141 0 747 490 
Q 353 981 353 1791 
Q 353 2603 747 3093 
Q 1141 3584 1784 3584 
Q 2172 3584 2450 3431 
Q 2728 3278 2906 2969 
L 2906 3500 
L 3481 3500 
L 3481 434 
z
" transform="scale(0.015625)"/>
       <path id="DejaVuSans-68" d="M 3513 2113 
L 3513 0 
L 2938 0 
L 2938 2094 
Q 2938 2591 2744 2837 
Q 2550 3084 2163 3084 
Q 1697 3084 1428 2787 
Q 1159 2491 1159 1978 
L 1159 0 
L 581 0 
L 581 4863 
L 1159 4863 
L 1159 2956 
Q 1366 3272 1645 3428 
Q 1925 3584 2291 3584 
Q 2894 3584 3203 3211 
Q 3513 2838 3513 2113 
z
" transform="scale(0.015625)"/>
      </defs>
      <use xlink:href="#DejaVuSans-53"/>
      <use xlink:href="#DejaVuSans-75" x="63.476562"/>
      <use xlink:href="#DejaVuSans-62" x="126.855469"/>
      <use xlink:href="#DejaVuSans-72" x="190.332031"/>
      <use xlink:href="#DejaVuSans-65" x="229.195312"/>
      <use xlink:href="#DejaVuSans-64" x="290.71875"/>
      <use xlink:href="#DejaVuSans-64" x="354.195312"/>
      <use xlink:href="#DejaVuSans-69" x="417.671875"/>
      <use xlink:href="#DejaVuSans-74" x="445.455078"/>
      <use xlink:href="#DejaVuSans-20" x="484.664062"/>
      <use xlink:href="#DejaVuSans-57" x="516.451172"/>
      <use xlink:href="#DejaVuSans-65" x="609.453125"/>
      <use xlink:href="#DejaVuSans-69" x="670.976562"/>
      <use xlink:href="#DejaVuSans-67" x="698.759766"/>
      <use xlink:href="#DejaVuSans-68" x="762.236328"/>
      <use xlink:href="#DejaVuSans-74" x="825.615234"/>
     </g>
    </g>
   </g>
   <g id="matplotlib.axis_2">
    <g id="ytick_1">
     <g id="line2d_11">
      <path d="M 44.57 375.659268 
L 709.2 375.659268 
" clip-path="url(#pbd02260c22)" style="fill: none; stroke-dasharray: 2.96,1.28; stroke-dashoffset: 0; stroke: #b0b0b0; stroke-opacity: 0.5; stroke-width: 0.8"/>
     </g>
     <g id="line2d_12">
      <defs>
       <path id="m645a5c9f44" d="M 0 0 
L -3.5 0 
" style="stroke: #000000; stroke-width: 0.8"/>
      </defs>
      <g>
       <use xlink:href="#m645a5c9f44" x="44.57" y="375.659268" style="stroke: #000000; stroke-width: 0.8"/>
      </g>
     </g>
     <g id="text_7">
      <!-- 0 -->
      <g transform="translate(31.2075 379.458487) scale(0.1 -0.1)">
       <use xlink:href="#DejaVuSans-30"/>
      </g>
     </g>
    </g>
    <g id="ytick_2">
     <g id="line2d_13">
      <path d="M 44.57 320.280602 
L 709.2 320.280602 
" clip-path="url(#pbd02260c22)" style="fill: none; stroke-dasharray: 2.96,1.28; stroke-dashoffset: 0; stroke: #b0b0b0; stroke-opacity: 0.5; stroke-width: 0.8"/>
     </g>
     <g id="line2d_14">
      <g>
       <use xlink:href="#m645a5c9f44" x="44.57" y="320.280602" style="stroke: #000000; stroke-width: 0.8"/>
      </g>
     </g>
     <g id="text_8">
      <!-- 5 -->
      <g transform="translate(31.2075 324.079821) scale(0.1 -0.1)">
       <use xlink:href="#DejaVuSans-35"/>
      </g>
     </g>
    </g>
    <g id="ytick_3">
     <g id="line2d_15">
      <path d="M 44.57 264.901936 
L 709.2 264.901936 
" clip-path="url(#pbd02260c22)" style="fill: none; stroke-dasharray: 2.96,1.28; stroke-dashoffset: 0; stroke: #b0b0b0; stroke-opacity: 0.5; stroke-width: 0.8"/>
     </g>
     <g id="line2d_16">
      <g>
       <use xlink:href="#m645a5c9f44" x="44.57" y="264.901936" style="stroke: #000000; stroke-width: 0.8"/>
      </g>
     </g>
     <g id="text_9">
      <!-- 10 -->
      <g transform="translate(24.845 268.701155) scale(0.1 -0.1)">
       <use xlink:href="#DejaVuSans-31"/>
       <use xlink:href="#DejaVuSans-30" x="63.623047"/>
      </g>
     </g>
    </g>
    <g id="ytick_4">
     <g id="line2d_17">
      <path d="M 44.57 209.52327 
L 709.2 209.52327 
" clip-path="url(#pbd02260c22)" style="fill: none; stroke-dasharray: 2.96,1.28; stroke-dashoffset: 0; stroke: #b0b0b0; stroke-opacity: 0.5; stroke-width: 0.8"/>
     </g>
     <g id="line2d_18">
      <g>
       <use xlink:href="#m645a5c9f44" x="44.57" y="209.52327" style="stroke: #000000; stroke-width: 0.8"/>
      </g>
     </g>
     <g id="text_10">
      <!-- 15 -->
      <g transform="translate(24.845 213.322489) scale(0.1 -0.1)">
       <use xlink:href="#DejaVuSans-31"/>
       <use xlink:href="#DejaVuSans-35" x="63.623047"/>
      </g>
     </g>
    </g>
    <g id="ytick_5">
     <g id="line2d_19">
      <path d="M 44.57 154.144604 
L 709.2 154.144604 
" clip-path="url(#pbd02260c22)" style="fill: none; stroke-dasharray: 2.96,1.28; stroke-dashoffset: 0; stroke: #b0b0b0; stroke-opacity: 0.5; stroke-width: 0.8"/>
     </g>
     <g id="line2d_20">
      <g>
       <use xlink:href="#m645a5c9f44" x="44.57" y="154.144604" style="stroke: #000000; stroke-width: 0.8"/>
      </g>
     </g>
     <g id="text_11">
      <!-- 20 -->
      <g transform="translate(24.845 157.943823) scale(0.1 -0.1)">
       <use xlink:href="#DejaVuSans-32"/>
       <use xlink:href="#DejaVuSans-30" x="63.623047"/>
      </g>
     </g>
    </g>
    <g id="ytick_6">
     <g id="line2d_21">
      <path d="M 44.57 98.765939 
L 709.2 98.765939 
" clip-path="url(#pbd02260c22)" style="fill: none; stroke-dasharray: 2.96,1.28; stroke-dashoffset: 0; stroke: #b0b0b0; stroke-opacity: 0.5; stroke-width: 0.8"/>
     </g>
     <g id="line2d_22">
      <g>
       <use xlink:href="#m645a5c9f44" x="44.57" y="98.765939" style="stroke: #000000; stroke-width: 0.8"/>
      </g>
     </g>
     <g id="text_12">
      <!-- 25 -->
      <g transform="translate(24.845 102.565157) scale(0.1 -0.1)">
       <use xlink:href="#DejaVuSans-32"/>
       <use xlink:href="#DejaVuSans-35" x="63.623047"/>
      </g>
     </g>
    </g>
    <g id="ytick_7">
     <g id="line2d_23">
      <path d="M 44.57 43.387273 
L 709.2 43.387273 
" clip-path="url(#pbd02260c22)" style="fill: none; stroke-dasharray: 2.96,1.28; stroke-dashoffset: 0; stroke: #b0b0b0; stroke-opacity: 0.5; stroke-width: 0.8"/>
     </g>
     <g id="line2d_24">
      <g>
       <use xlink:href="#m645a5c9f44" x="44.57" y="43.387273" style="stroke: #000000; stroke-width: 0.8"/>
      </g>
     </g>
     <g id="text_13">
      <!-- 30 -->
      <g transform="translate(24.845 47.186491) scale(0.1 -0.1)">
       <defs>
        <path id="DejaVuSans-33" d="M 2597 2516 
Q 3050 2419 3304 2112 
Q 3559 1806 3559 1356 
Q 3559 666 3084 287 
Q 2609 -91 1734 -91 
Q 1441 -91 1130 -33 
Q 819 25 488 141 
L 488 750 
Q 750 597 1062 519 
Q 1375 441 1716 441 
Q 2309 441 2620 675 
Q 2931 909 2931 1356 
Q 2931 1769 2642 2001 
Q 2353 2234 1838 2234 
L 1294 2234 
L 1294 2753 
L 1863 2753 
Q 2328 2753 2575 2939 
Q 2822 3125 2822 3475 
Q 2822 3834 2567 4026 
Q 2313 4219 1838 4219 
Q 1578 4219 1281 4162 
Q 984 4106 628 3988 
L 628 4550 
Q 988 4650 1302 4700 
Q 1616 4750 1894 4750 
Q 2613 4750 3031 4423 
Q 3450 4097 3450 3541 
Q 3450 3153 3228 2886 
Q 3006 2619 2597 2516 
z
" transform="scale(0.015625)"/>
       </defs>
       <use xlink:href="#DejaVuSans-33"/>
       <use xlink:href="#DejaVuSans-30" x="63.623047"/>
      </g>
     </g>
    </g>
    <g id="text_14">
     <!-- Adjusted Score (120 / weight ^ exponent) -->
     <g transform="translate(18.765313 313.610781) rotate(-90) scale(0.1 -0.1)">
      <defs>
       <path id="DejaVuSans-41" d="M 2188 4044 
L 1331 1722 
L 3047 1722 
L 2188 4044 
z
M 1831 4666 
L 2547 4666 
L 4325 0 
L 3669 0 
L 3244 1197 
L 1141 1197 
L 716 0 
L 50 0 
L 1831 4666 
z
" transform="scale(0.015625)"/>
       <path id="DejaVuSans-6a" d="M 603 3500 
L 1178 3500 
L 1178 -63 
Q 1178 -731 923 -1031 
Q 669 -1331 103 -1331 
L -116 -1331 
L -116 -844 
L 38 -844 
Q 366 -844 484 -692 
Q 603 -541 603 -63 
L 603 3500 
z
M 603 4863 
L 1178 4863 
L 1178 4134 
L 603 4134 
L 603 4863 
z
" transform="scale(0.015625)"/>
       <path id="DejaVuSans-73" d="M 2834 3397 
L 2834 2853 
Q 2591 2978 2328 3040 
Q 2066 3103 1784 3103 
Q 1356 3103 1142 2972 
Q 928 2841 928 2578 
Q 928 2378 1081 2264 
Q 1234 2150 1697 2047 
L 1894 2003 
Q 2506 1872 2764 1633 
Q 3022 1394 3022 966 
Q 3022 478 2636 193 
Q 2250 -91 1575 -91 
Q 1294 -91 989 -36 
Q 684 19 347 128 
L 347 722 
Q 666 556 975 473 
Q 1284 391 1588 391 
Q 1994 391 2212 530 
Q 2431 669 2431 922 
Q 2431 1156 2273 1281 
Q 2116 1406 1581 1522 
L 1381 1569 
Q 847 1681 609 1914 
Q 372 2147 372 2553 
Q 372 3047 722 3315 
Q 1072 3584 1716 3584 
Q 2034 3584 2315 3537 
Q 2597 3491 2834 3397 
z
" transform="scale(0.015625)"/>
       <path id="DejaVuSans-63" d="M 3122 3366 
L 3122 2828 
Q 2878 2963 2633 3030 
Q 2388 3097 2138 3097 
Q 1578 3097 1268 2742 
Q 959 2388 959 1747 
Q 959 1106 1268 751 
Q 1578 397 2138 397 
Q 2388 397 2633 464 
Q 2878 531 3122 666 
L 3122 134 
Q 2881 22 2623 -34 
Q 2366 -91 2075 -91 
Q 1284 -91 818 406 
Q 353 903 353 1747 
Q 353 2603 823 3093 
Q 1294 3584 2113 3584 
Q 2378 3584 2631 3529 
Q 2884 3475 3122 3366 
z
" transform="scale(0.015625)"/>
       <path id="DejaVuSans-6f" d="M 1959 3097 
Q 1497 3097 1228 2736 
Q 959 2375 959 1747 
Q 959 1119 1226 758 
Q 1494 397 1959 397 
Q 2419 397 2687 759 
Q 2956 1122 2956 1747 
Q 2956 2369 2687 2733 
Q 2419 3097 1959 3097 
z
M 1959 3584 
Q 2709 3584 3137 3096 
Q 3566 2609 3566 1747 
Q 3566 888 3137 398 
Q 2709 -91 1959 -91 
Q 1206 -91 779 398 
Q 353 888 353 1747 
Q 353 2609 779 3096 
Q 1206 3584 1959 3584 
z
" transform="scale(0.015625)"/>
       <path id="DejaVuSans-28" d="M 1984 4856 
Q 1566 4138 1362 3434 
Q 1159 2731 1159 2009 
Q 1159 1288 1364 580 
Q 1569 -128 1984 -844 
L 1484 -844 
Q 1016 -109 783 600 
Q 550 1309 550 2009 
Q 550 2706 781 3412 
Q 1013 4119 1484 4856 
L 1984 4856 
z
" transform="scale(0.015625)"/>
       <path id="DejaVuSans-2f" d="M 1625 4666 
L 2156 4666 
L 531 -594 
L 0 -594 
L 1625 4666 
z
" transform="scale(0.015625)"/>
       <path id="DejaVuSans-77" d="M 269 3500 
L 844 3500 
L 1563 769 
L 2278 3500 
L 2956 3500 
L 3675 769 
L 4391 3500 
L 4966 3500 
L 4050 0 
L 3372 0 
L 2619 2869 
L 1863 0 
L 1184 0 
L 269 3500 
z
" transform="scale(0.015625)"/>
       <path id="DejaVuSans-5e" d="M 2988 4666 
L 4684 2925 
L 4056 2925 
L 2681 4159 
L 1306 2925 
L 678 2925 
L 2375 4666 
L 2988 4666 
z
" transform="scale(0.015625)"/>
       <path id="DejaVuSans-78" d="M 3513 3500 
L 2247 1797 
L 3578 0 
L 2900 0 
L 1881 1375 
L 863 0 
L 184 0 
L 1544 1831 
L 300 3500 
L 978 3500 
L 1906 2253 
L 2834 3500 
L 3513 3500 
z
" transform="scale(0.015625)"/>
       <path id="DejaVuSans-70" d="M 1159 525 
L 1159 -1331 
L 581 -1331 
L 581 3500 
L 1159 3500 
L 1159 2969 
Q 1341 3281 1617 3432 
Q 1894 3584 2278 3584 
Q 2916 3584 3314 3078 
Q 3713 2572 3713 1747 
Q 3713 922 3314 415 
Q 2916 -91 2278 -91 
Q 1894 -91 1617 61 
Q 1341 213 1159 525 
z
M 3116 1747 
Q 3116 2381 2855 2742 
Q 2594 3103 2138 3103 
Q 1681 3103 1420 2742 
Q 1159 2381 1159 1747 
Q 1159 1113 1420 752 
Q 1681 391 2138 391 
Q 2594 391 2855 752 
Q 3116 1113 3116 1747 
z
" transform="scale(0.015625)"/>
       <path id="DejaVuSans-6e" d="M 3513 2113 
L 3513 0 
L 2938 0 
L 2938 2094 
Q 2938 2591 2744 2837 
Q 2550 3084 2163 3084 
Q 1697 3084 1428 2787 
Q 1159 2491 1159 1978 
L 1159 0 
L 581 0 
L 581 3500 
L 1159 3500 
L 1159 2956 
Q 1366 3272 1645 3428 
Q 1925 3584 2291 3584 
Q 2894 3584 3203 3211 
Q 3513 2838 3513 2113 
z
" transform="scale(0.015625)"/>
       <path id="DejaVuSans-29" d="M 513 4856 
L 1013 4856 
Q 1481 4119 1714 3412 
Q 1947 2706 1947 2009 
Q 1947 1309 1714 600 
Q 1481 -109 1013 -844 
L 513 -844 
Q 928 -128 1133 580 
Q 1338 1288 1338 2009 
Q 1338 2731 1133 3434 
Q 928 4138 513 4856 
z
" transform="scale(0.015625)"/>
      </defs>
      <use xlink:href="#DejaVuSans-41"/>
      <use xlink:href="#DejaVuSans-64" x="66.658203"/>
      <use xlink:href="#DejaVuSans-6a" x="130.134766"/>
      <use xlink:href="#DejaVuSans-75" x="157.917969"/>
      <use xlink:href="#DejaVuSans-73" x="221.296875"/>
      <use xlink:href="#DejaVuSans-74" x="273.396484"/>
      <use xlink:href="#DejaVuSans-65" x="312.605469"/>
      <use xlink:href="#DejaVuSans-64" x="374.128906"/>
      <use xlink:href="#DejaVuSans-20" x="437.605469"/>
      <use xlink:href="#DejaVuSans-53" x="469.392578"/>
      <use xlink:href="#DejaVuSans-63" x="532.869141"/>
      <use xlink:href="#DejaVuSans-6f" x="587.849609"/>
      <use xlink:href="#DejaVuSans-72" x="649.03125"/>
      <use xlink:href="#DejaVuSans-65" x="687.894531"/>
      <use xlink:href="#DejaVuSans-20" x="749.417969"/>
      <use xlink:href="#DejaVuSans-28" x="781.205078"/>
      <use xlink:href="#DejaVuSans-31" x="820.21875"/>
      <use xlink:href="#DejaVuSans-32" x="883.841797"/>
      <use xlink:href="#DejaVuSans-30" x="947.464844"/>
      <use xlink:href="#DejaVuSans-20" x="1011.087891"/>
      <use xlink:href="#DejaVuSans-2f" x="1042.875"/>
      <use xlink:href="#DejaVuSans-20" x="1076.566406"/>
      <use xlink:href="#DejaVuSans-77" x="1108.353516"/>
      <use xlink:href="#DejaVuSans-65" x="1190.140625"/>
      <use xlink:href="#DejaVuSans-69" x="1251.664062"/>
      <use xlink:href="#DejaVuSans-67" x="1279.447266"/>
      <use xlink:href="#DejaVuSans-68" x="1342.923828"/>
      <use xlink:href="#DejaVuSans-74" x="1406.302734"/>
      <use xlink:href="#DejaVuSans-20" x="1445.511719"/>
      <use xlink:href="#DejaVuSans-5e" x="1477.298828"/>
      <use xlink:href="#DejaVuSans-20" x="1561.087891"/>
      <use xlink:href="#DejaVuSans-65" x="1592.875"/>
      <use xlink:href="#DejaVuSans-78" x="1652.648438"/>
      <use xlink:href="#DejaVuSans-70" x="1711.828125"/>
      <use xlink:href="#DejaVuSans-6f" x="1775.304688"/>
      <use xlink:href="#DejaVuSans-6e" x="1836.486328"/>
      <use xlink:href="#DejaVuSans-65" x="1899.865234"/>
      <use xlink:href="#DejaVuSans-6e" x="1961.388672"/>
      <use xlink:href="#DejaVuSans-74" x="2024.767578"/>
      <use xlink:href="#DejaVuSans-29" x="2063.976562"/>
     </g>
    </g>
   </g>
   <g id="line2d_25">
    <path d="M 74.780455 43.387273 
L 132.324177 154.144604 
L 189.8679 209.52327 
L 247.411623 242.75047 
L 391.270931 287.053403 
L 678.989545 322.495749 
" clip-path="url(#pbd02260c22)" style="fill: none; stroke: #1f77b4; stroke-width: 1.5; stroke-linecap: square"/>
    <defs>
     <path id="m4616acba4a" d="M 0 3 
C 0.795609 3 1.55874 2.683901 2.12132 2.12132 
C 2.683901 1.55874 3 0.795609 3 0 
C 3 -0.795609 2.683901 -1.55874 2.12132 -2.12132 
C 1.55874 -2.683901 0.795609 -3 0 -3 
C -0.795609 -3 -1.55874 -2.683901 -2.12132 -2.12132 
C -2.683901 -1.55874 -3 -0.795609 -3 0 
C -3 0.795609 -2.683901 1.55874 -2.12132 2.12132 
C -1.55874 2.683901 -0.795609 3 0 3 
z
" style="stroke: #1f77b4"/>
    </defs>
    <g clip-path="url(#pbd02260c22)">
     <use xlink:href="#m4616acba4a" x="74.780455" y="43.387273" style="fill: #1f77b4; stroke: #1f77b4"/>
     <use xlink:href="#m4616acba4a" x="132.324177" y="154.144604" style="fill: #1f77b4; stroke: #1f77b4"/>
     <use xlink:href="#m4616acba4a" x="189.8679" y="209.52327" style="fill: #1f77b4; stroke: #1f77b4"/>
     <use xlink:href="#m4616acba4a" x="247.411623" y="242.75047" style="fill: #1f77b4; stroke: #1f77b4"/>
     <use xlink:href="#m4616acba4a" x="391.270931" y="287.053403" style="fill: #1f77b4; stroke: #1f77b4"/>
     <use xlink:href="#m4616acba4a" x="678.989545" y="322.495749" style="fill: #1f77b4; stroke: #1f77b4"/>
    </g>
   </g>
   <g id="line2d_26">
    <path d="M 74.780455 123.844184 
L 132.324177 220.858814 
L 189.8679 266.050386 
L 247.411623 291.799486 
L 391.270931 324.107422 
L 678.989545 347.732176 
" clip-path="url(#pbd02260c22)" style="fill: none; stroke: #ff7f0e; stroke-width: 1.5; stroke-linecap: square"/>
    <defs>
     <path id="md1d138386c" d="M 0 3 
C 0.795609 3 1.55874 2.683901 2.12132 2.12132 
C 2.683901 1.55874 3 0.795609 3 0 
C 3 -0.795609 2.683901 -1.55874 2.12132 -2.12132 
C 1.55874 -2.683901 0.795609 -3 0 -3 
C -0.795609 -3 -1.55874 -2.683901 -2.12132 -2.12132 
C -2.683901 -1.55874 -3 -0.795609 -3 0 
C -3 0.795609 -2.683901 1.55874 -2.12132 2.12132 
C -1.55874 2.683901 -0.795609 3 0 3 
z
" style="stroke: #ff7f0e"/>
    </defs>
    <g clip-path="url(#pbd02260c22)">
     <use xlink:href="#md1d138386c" x="74.780455" y="123.844184" style="fill: #ff7f0e; stroke: #ff7f0e"/>
     <use xlink:href="#md1d138386c" x="132.324177" y="220.858814" style="fill: #ff7f0e; stroke: #ff7f0e"/>
     <use xlink:href="#md1d138386c" x="189.8679" y="266.050386" style="fill: #ff7f0e; stroke: #ff7f0e"/>
     <use xlink:href="#md1d138386c" x="247.411623" y="291.799486" style="fill: #ff7f0e; stroke: #ff7f0e"/>
     <use xlink:href="#md1d138386c" x="391.270931" y="324.107422" style="fill: #ff7f0e; stroke: #ff7f0e"/>
     <use xlink:href="#md1d138386c" x="678.989545" y="347.732176" style="fill: #ff7f0e; stroke: #ff7f0e"/>
    </g>
   </g>
   <g id="line2d_27">
    <path d="M 74.780455 209.52327 
L 132.324177 285.226285 
L 189.8679 316.921323 
L 247.411623 333.629816 
L 391.270931 352.781332 
L 678.989545 365.026564 
" clip-path="url(#pbd02260c22)" style="fill: none; stroke: #2ca02c; stroke-width: 1.5; stroke-linecap: square"/>
    <defs>
     <path id="m494884c9ec" d="M 0 3 
C 0.795609 3 1.55874 2.683901 2.12132 2.12132 
C 2.683901 1.55874 3 0.795609 3 0 
C 3 -0.795609 2.683901 -1.55874 2.12132 -2.12132 
C 1.55874 -2.683901 0.795609 -3 0 -3 
C -0.795609 -3 -1.55874 -2.683901 -2.12132 -2.12132 
C -2.683901 -1.55874 -3 -0.795609 -3 0 
C -3 0.795609 -2.683901 1.55874 -2.12132 2.12132 
C -1.55874 2.683901 -0.795609 3 0 3 
z
" style="stroke: #2ca02c"/>
    </defs>
    <g clip-path="url(#pbd02260c22)">
     <use xlink:href="#m494884c9ec" x="74.780455" y="209.52327" style="fill: #2ca02c; stroke: #2ca02c"/>
     <use xlink:href="#m494884c9ec" x="132.324177" y="285.226285" style="fill: #2ca02c; stroke: #2ca02c"/>
     <use xlink:href="#m494884c9ec" x="189.8679" y="316.921323" style="fill: #2ca02c; stroke: #2ca02c"/>
     <use xlink:href="#m494884c9ec" x="247.411623" y="333.629816" style="fill: #2ca02c; stroke: #2ca02c"/>
     <use xlink:href="#m494884c9ec" x="391.270931" y="352.781332" style="fill: #2ca02c; stroke: #2ca02c"/>
     <use xlink:href="#m494884c9ec" x="678.989545" y="365.026564" style="fill: #2ca02c; stroke: #2ca02c"/>
    </g>
   </g>
   <g id="line2d_28">
    <path d="M 74.780455 292.591269 
L 132.324177 338.740157 
L 189.8679 354.892268 
L 247.411623 362.368388 
L 391.270931 369.75221 
L 678.989545 373.532727 
" clip-path="url(#pbd02260c22)" style="fill: none; stroke: #d62728; stroke-width: 1.5; stroke-linecap: square"/>
    <defs>
     <path id="m2c0e50220d" d="M 0 3 
C 0.795609 3 1.55874 2.683901 2.12132 2.12132 
C 2.683901 1.55874 3 0.795609 3 0 
C 3 -0.795609 2.683901 -1.55874 2.12132 -2.12132 
C 1.55874 -2.683901 0.795609 -3 0 -3 
C -0.795609 -3 -1.55874 -2.683901 -2.12132 -2.12132 
C -2.683901 -1.55874 -3 -0.795609 -3 0 
C -3 0.795609 -2.683901 1.55874 -2.12132 2.12132 
C -1.55874 2.683901 -0.795609 3 0 3 
z
" style="stroke: #d62728"/>
    </defs>
    <g clip-path="url(#pbd02260c22)">
     <use xlink:href="#m2c0e50220d" x="74.780455" y="292.591269" style="fill: #d62728; stroke: #d62728"/>
     <use xlink:href="#m2c0e50220d" x="132.324177" y="338.740157" style="fill: #d62728; stroke: #d62728"/>
     <use xlink:href="#m2c0e50220d" x="189.8679" y="354.892268" style="fill: #d62728; stroke: #d62728"/>
     <use xlink:href="#m2c0e50220d" x="247.411623" y="362.368388" style="fill: #d62728; stroke: #d62728"/>
     <use xlink:href="#m2c0e50220d" x="391.270931" y="369.75221" style="fill: #d62728; stroke: #d62728"/>
     <use xlink:href="#m2c0e50220d" x="678.989545" y="373.532727" style="fill: #d62728; stroke: #d62728"/>
    </g>
   </g>
   <g id="patch_3">
    <path d="M 44.57 390.04 
L 44.57 26.88 
" style="fill: none; stroke: #000000; stroke-width: 0.8; stroke-linejoin: miter; stroke-linecap: square"/>
   </g>
   <g id="patch_4">
    <path d="M 709.2 390.04 
L 709.2 26.88 
" style="fill: none; stroke: #000000; stroke-width: 0.8; stroke-linejoin: miter; stroke-linecap: square"/>
   </g>
   <g id="patch_5">
    <path d="M 44.57 390.04 
L 709.2 390.04 
" style="fill: none; stroke: #000000; stroke-width: 0.8; stroke-linejoin: miter; stroke-linecap: square"/>
   </g>
   <g id="patch_6">
    <path d="M 44.57 26.88 
L 709.2 26.88 
" style="fill: none; stroke: #000000; stroke-width: 0.8; stroke-linejoin: miter; stroke-linecap: square"/>
   </g>
   <g id="text_15">
    <!-- 📊 Adjusted Meme Score vs Subreddit Weight -->
    <g transform="translate(243.717813 20.88) scale(0.12 -0.12)">
     <defs>
      <path id="DejaVuSans-1f4ca" d="M 319 -1131 
L 319 4513 
L 3519 4513 
L 3519 -1131 
L 319 -1131 
z
M 678 -775 
L 3163 -775 
L 3163 4153 
L 678 4153 
L 678 -775 
z
" transform="scale(0.015625)"/>
      <path id="DejaVuSans-4d" d="M 628 4666 
L 1569 4666 
L 2759 1491 
L 3956 4666 
L 4897 4666 
L 4897 0 
L 4281 0 
L 4281 4097 
L 3078 897 
L 2444 897 
L 1241 4097 
L 1241 0 
L 628 0 
L 628 4666 
z
" transform="scale(0.015625)"/>
      <path id="DejaVuSans-6d" d="M 3328 2828 
Q 3544 3216 3844 3400 
Q 4144 3584 4550 3584 
Q 5097 3584 5394 3201 
Q 5691 2819 5691 2113 
L 5691 0 
L 5113 0 
L 5113 2094 
Q 5113 2597 4934 2840 
Q 4756 3084 4391 3084 
Q 3944 3084 3684 2787 
Q 3425 2491 3425 1978 
L 3425 0 
L 2847 0 
L 2847 2094 
Q 2847 2600 2669 2842 
Q 2491 3084 2119 3084 
Q 1678 3084 1418 2786 
Q 1159 2488 1159 1978 
L 1159 0 
L 581 0 
L 581 3500 
L 1159 3500 
L 1159 2956 
Q 1356 3278 1631 3431 
Q 1906 3584 2284 3584 
Q 2666 3584 2933 3390 
Q 3200 3197 3328 2828 
z
" transform="scale(0.015625)"/>
      <path id="DejaVuSans-76" d="M 191 3500 
L 800 3500 
L 1894 563 
L 2988 3500 
L 3597 3500 
L 2284 0 
L 1503 0 
L 191 3500 
z
" transform="scale(0.015625)"/>
     </defs>
     <use xlink:href="#DejaVuSans-1f4ca"/>
     <use xlink:href="#DejaVuSans-20" x="60.009766"/>
     <use xlink:href="#DejaVuSans-41" x="91.796875"/>
     <use xlink:href="#DejaVuSans-64" x="158.455078"/>
     <use xlink:href="#DejaVuSans-6a" x="221.931641"/>
     <use xlink:href="#DejaVuSans-75" x="249.714844"/>
     <use xlink:href="#DejaVuSans-73" x="313.09375"/>
     <use xlink:href="#DejaVuSans-74" x="365.193359"/>
     <use xlink:href="#DejaVuSans-65" x="404.402344"/>
     <use xlink:href="#DejaVuSans-64" x="465.925781"/>
     <use xlink:href="#DejaVuSans-20" x="529.402344"/>
     <use xlink:href="#DejaVuSans-4d" x="561.189453"/>
     <use xlink:href="#DejaVuSans-65" x="647.46875"/>
     <use xlink:href="#DejaVuSans-6d" x="708.992188"/>
     <use xlink:href="#DejaVuSans-65" x="806.404297"/>
     <use xlink:href="#DejaVuSans-20" x="867.927734"/>
     <use xlink:href="#DejaVuSans-53" x="899.714844"/>
     <use xlink:href="#DejaVuSans-63" x="963.191406"/>
     <use xlink:href="#DejaVuSans-6f" x="1018.171875"/>
     <use xlink:href="#DejaVuSans-72" x="1079.353516"/>
     <use xlink:href="#DejaVuSans-65" x="1118.216797"/>
     <use xlink:href="#DejaVuSans-20" x="1179.740234"/>
     <use xlink:href="#DejaVuSans-76" x="1211.527344"/>
     <use xlink:href="#DejaVuSans-73" x="1270.707031"/>
     <use xlink:href="#DejaVuSans-20" x="1322.806641"/>
     <use xlink:href="#DejaVuSans-53" x="1354.59375"/>
     <use xlink:href="#DejaVuSans-75" x="1418.070312"/>
     <use xlink:href="#DejaVuSans-62" x="1481.449219"/>
     <use xlink:href="#DejaVuSans-72" x="1544.925781"/>
     <use xlink:href="#DejaVuSans-65" x="1583.789062"/>
     <use xlink:href="#DejaVuSans-64" x="1645.3125"/>
     <use xlink:href="#DejaVuSans-64" x="1708.789062"/>
     <use xlink:href="#DejaVuSans-69" x="1772.265625"/>
     <use xlink:href="#DejaVuSans-74" x="1800.048828"/>
     <use xlink:href="#DejaVuSans-20" x="1839.257812"/>
     <use xlink:href="#DejaVuSans-57" x="1871.044922"/>
     <use xlink:href="#DejaVuSans-65" x="1964.046875"/>
     <use xlink:href="#DejaVuSans-69" x="2025.570312"/>
     <use xlink:href="#DejaVuSans-67" x="2053.353516"/>
     <use xlink:href="#DejaVuSans-68" x="2116.830078"/>
     <use xlink:href="#DejaVuSans-74" x="2180.208984"/>
    </g>
   </g>
   <g id="legend_1">
    <g id="patch_7">
     <path d="M 592.107813 93.5925 
L 702.2 93.5925 
Q 704.2 93.5925 704.2 91.5925 
L 704.2 33.88 
Q 704.2 31.88 702.2 31.88 
L 592.107813 31.88 
Q 590.107813 31.88 590.107813 33.88 
L 590.107813 91.5925 
Q 590.107813 93.5925 592.107813 93.5925 
z
" style="fill: #ffffff; opacity: 0.8; stroke: #cccccc; stroke-linejoin: miter"/>
    </g>
    <g id="line2d_29">
     <path d="M 594.107813 39.978437 
L 604.107813 39.978437 
L 614.107813 39.978437 
" style="fill: none; stroke: #1f77b4; stroke-width: 1.5; stroke-linecap: square"/>
     <g>
      <use xlink:href="#m4616acba4a" x="604.107813" y="39.978437" style="fill: #1f77b4; stroke: #1f77b4"/>
     </g>
    </g>
    <g id="text_16">
     <!-- Exponent = 1.0 -->
     <g transform="translate(622.107813 43.478437) scale(0.1 -0.1)">
      <defs>
       <path id="DejaVuSans-45" d="M 628 4666 
L 3578 4666 
L 3578 4134 
L 1259 4134 
L 1259 2753 
L 3481 2753 
L 3481 2222 
L 1259 2222 
L 1259 531 
L 3634 531 
L 3634 0 
L 628 0 
L 628 4666 
z
" transform="scale(0.015625)"/>
       <path id="DejaVuSans-3d" d="M 678 2906 
L 4684 2906 
L 4684 2381 
L 678 2381 
L 678 2906 
z
M 678 1631 
L 4684 1631 
L 4684 1100 
L 678 1100 
L 678 1631 
z
" transform="scale(0.015625)"/>
       <path id="DejaVuSans-2e" d="M 684 794 
L 1344 794 
L 1344 0 
L 684 0 
L 684 794 
z
" transform="scale(0.015625)"/>
      </defs>
      <use xlink:href="#DejaVuSans-45"/>
      <use xlink:href="#DejaVuSans-78" x="63.183594"/>
      <use xlink:href="#DejaVuSans-70" x="122.363281"/>
      <use xlink:href="#DejaVuSans-6f" x="185.839844"/>
      <use xlink:href="#DejaVuSans-6e" x="247.021484"/>
      <use xlink:href="#DejaVuSans-65" x="310.400391"/>
      <use xlink:href="#DejaVuSans-6e" x="371.923828"/>
      <use xlink:href="#DejaVuSans-74" x="435.302734"/>
      <use xlink:href="#DejaVuSans-20" x="474.511719"/>
      <use xlink:href="#DejaVuSans-3d" x="506.298828"/>
      <use xlink:href="#DejaVuSans-20" x="590.087891"/>
      <use xlink:href="#DejaVuSans-31" x="621.875"/>
      <use xlink:href="#DejaVuSans-2e" x="685.498047"/>
      <use xlink:href="#DejaVuSans-30" x="717.285156"/>
     </g>
    </g>
    <g id="line2d_30">
     <path d="M 594.107813 54.656563 
L 604.107813 54.656563 
L 614.107813 54.656563 
" style="fill: none; stroke: #ff7f0e; stroke-width: 1.5; stroke-linecap: square"/>
     <g>
      <use xlink:href="#md1d138386c" x="604.107813" y="54.656563" style="fill: #ff7f0e; stroke: #ff7f0e"/>
     </g>
    </g>
    <g id="text_17">
     <!-- Exponent = 1.2 -->
     <g transform="translate(622.107813 58.156563) scale(0.1 -0.1)">
      <use xlink:href="#DejaVuSans-45"/>
      <use xlink:href="#DejaVuSans-78" x="63.183594"/>
      <use xlink:href="#DejaVuSans-70" x="122.363281"/>
      <use xlink:href="#DejaVuSans-6f" x="185.839844"/>
      <use xlink:href="#DejaVuSans-6e" x="247.021484"/>
      <use xlink:href="#DejaVuSans-65" x="310.400391"/>
      <use xlink:href="#DejaVuSans-6e" x="371.923828"/>
      <use xlink:href="#DejaVuSans-74" x="435.302734"/>
      <use xlink:href="#DejaVuSans-20" x="474.511719"/>
      <use xlink:href="#DejaVuSans-3d" x="506.298828"/>
      <use xlink:href="#DejaVuSans-20" x="590.087891"/>
      <use xlink:href="#DejaVuSans-31" x="621.875"/>
      <use xlink:href="#DejaVuSans-2e" x="685.498047"/>
      <use xlink:href="#DejaVuSans-32" x="717.285156"/>
     </g>
    </g>
    <g id="line2d_31">
     <path d="M 594.107813 69.334687 
L 604.107813 69.334687 
L 614.107813 69.334687 
" style="fill: none; stroke: #2ca02c; stroke-width: 1.5; stroke-linecap: square"/>
     <g>
      <use xlink:href="#m494884c9ec" x="604.107813" y="69.334687" style="fill: #2ca02c; stroke: #2ca02c"/>
     </g>
    </g>
    <g id="text_18">
     <!-- Exponent = 1.5 -->
     <g transform="translate(622.107813 72.834687) scale(0.1 -0.1)">
      <use xlink:href="#DejaVuSans-45"/>
      <use xlink:href="#DejaVuSans-78" x="63.183594"/>
      <use xlink:href="#DejaVuSans-70" x="122.363281"/>
      <use xlink:href="#DejaVuSans-6f" x="185.839844"/>
      <use xlink:href="#DejaVuSans-6e" x="247.021484"/>
      <use xlink:href="#DejaVuSans-65" x="310.400391"/>
      <use xlink:href="#DejaVuSans-6e" x="371.923828"/>
      <use xlink:href="#DejaVuSans-74" x="435.302734"/>
      <use xlink:href="#DejaVuSans-20" x="474.511719"/>
      <use xlink:href="#DejaVuSans-3d" x="506.298828"/>
      <use xlink:href="#DejaVuSans-20" x="590.087891"/>
      <use xlink:href="#DejaVuSans-31" x="621.875"/>
      <use xlink:href="#DejaVuSans-2e" x="685.498047"/>
      <use xlink:href="#DejaVuSans-35" x="717.285156"/>
     </g>
    </g>
    <g id="line2d_32">
     <path d="M 594.107813 84.012812 
L 604.107813 84.012812 
L 614.107813 84.012812 
" style="fill: none; stroke: #d62728; stroke-width: 1.5; stroke-linecap: square"/>
     <g>
      <use xlink:href="#m2c0e50220d" x="604.107813" y="84.012812" style="fill: #d62728; stroke: #d62728"/>
     </g>
    </g>
    <g id="text_19">
     <!-- Exponent = 2.0 -->
     <g transform="translate(622.107813 87.512812) scale(0.1 -0.1)">
      <use xlink:href="#DejaVuSans-45"/>
      <use xlink:href="#DejaVuSans-78" x="63.183594"/>
      <use xlink:href="#DejaVuSans-70" x="122.363281"/>
      <use xlink:href="#DejaVuSans-6f" x="185.839844"/>
      <use xlink:href="#DejaVuSans-6e" x="247.021484"/>
      <use xlink:href="#DejaVuSans-65" x="310.400391"/>
      <use xlink:href="#DejaVuSans-6e" x="371.923828"/>
      <use xlink:href="#DejaVuSans-74" x="435.302734"/>
      <use xlink:href="#DejaVuSans-20" x="474.511719"/>
      <use xlink:href="#DejaVuSans-3d" x="506.298828"/>
      <use xlink:href="#DejaVuSans-20" x="590.087891"/>
      <use xlink:href="#DejaVuSans-32" x="621.875"/>
      <use xlink:href="#DejaVuSans-2e" x="685.498047"/>
      <use xlink:href="#DejaVuSans-30" x="717.285156"/>
     </g>
    </g>
   </g>
  </g>
 </g>
 <defs>
  <clipPath id="pbd02260c22">
   <rect x="44.57" y="26.88" width="664.63" height="363.16"/>
  </clipPath>
 </defs>
</svg>
